# xmcd
#
# Track frame offsets:
#	150
#	16132
#	27227
#	38761
#	57411
#	68888
#	87767
#	107314
#	127333
#	146412
#	155687
#	175407
#	193514
#	207930
#	220040
#	239164
#	255179
#	273962
#	294113
#	311740
#	328991
#
# Disc length: 4580 seconds
#
# Revision: 0
# Processed by: cddbd v1.4PL0 Copyright (c) Steve Scherf et al.
# Submitted via: EasyCDDAExtractor 4.6.9.1
#
DISCID=3111e215
DTITLE=Various Artist - Country Legends [CD 1)
DYEAR=1900
DGENRE=Country
TTITLE0=Always On My Mind
TTITLE1=Blue Bayou
TTITLE2=All I Have To Do Is Dream
TTITLE3=How Do I Live
TTITLE4=Tennessee Waltz
TTITLE5=From A Distance
TTITLE6=When You Say Nothing At All
TTITLE7=Amazed
TTITLE8=I Am A Man Of Constant Sorrow
TTITLE9=The Promised Land
TTITLE10=Dance The Night Away
TTITLE11=I Can Help
TTITLE12=If I Said You Have A Beautiful Body
TTITLE13=Galveston
TTITLE14=Ode To Billy Joe
TTITLE15=Games People Play
TTITLE16=Angel Of The Morning
TTITLE17=Please Remember Me
TTITLE18=Love Can Build A Bridge
TTITLE19=Crying
TTITLE20=A Little Bit More
EXTD=
EXTT0=
EXTT1=
EXTT2=
EXTT3=
EXTT4=
EXTT5=
EXTT6=
EXTT7=
EXTT8=
EXTT9=
EXTT10=
EXTT11=
EXTT12=
EXTT13=
EXTT14=
EXTT15=
EXTT16=
EXTT17=
EXTT18=
EXTT19=
EXTT20=
PLAYORDER=
